<svg xmlns="http://www.w3.org/2000/svg" xmlns:xlink="http://www.w3.org/1999/xlink" width="130.261" height="58.214" viewBox="0 0 130.261 58.214"><defs><style>.a{fill:url(#a);}</style><linearGradient id="a" x1="1.031" y1="1.158" x2="0.077" y2="-0.222" gradientUnits="objectBoundingBox"><stop offset="0" stop-color="#fb00b8"/><stop offset="0" stop-color="#fb2588"/><stop offset="0.012" stop-color="#fb3079"/><stop offset="0.22" stop-color="#fb4b56"/><stop offset="0.484" stop-color="#fb5945"/><stop offset="0.529" stop-color="#fb6831"/><stop offset="0.599" stop-color="#fb6e29"/><stop offset="0.788" stop-color="#fb8c03"/><stop offset="0.986" stop-color="#fb8d01"/><stop offset="1" stop-color="#fb8e00"/></linearGradient></defs><path class="a" d="M17.99,59.317a3.153,3.153,0,0,1-.905-2.433V38.912H10.562a2.767,2.767,0,0,1-2.274-.926,3.13,3.13,0,0,1-.757-2.021,2.874,2.874,0,0,1,3.031-2.9h6.523V26.915s-5.674.989-8.958-1.691C2.332,20.493,3.884,1.943,3.884,1.943s6.287,4.968,11.867,9.684C24.489,19.013,23.4,25.872,23.4,25.872V56.915a3.114,3.114,0,0,1-.905,2.4,3.435,3.435,0,0,1-4.5,0Zm-1.7-33.82c8.52,0-11.569-21.6-11.569-21.6S3.718,25.5,16.292,25.5Zm77.493,32.41a1.962,1.962,0,0,1-.749-.635,2.878,2.878,0,0,1-.443-1.013,5.73,5.73,0,0,1-.145-1.346,4.8,4.8,0,0,1,.2-1.46,2.974,2.974,0,0,1,.539-1.022,2.139,2.139,0,0,1,.8-.6,2.4,2.4,0,0,1,.961-.2A2.37,2.37,0,0,1,96,51.857a2.019,2.019,0,0,1,.752.635A2.884,2.884,0,0,1,97.2,53.5a5.546,5.546,0,0,1,.148,1.339,4.775,4.775,0,0,1-.2,1.47,3,3,0,0,1-.541,1.022,2.145,2.145,0,0,1-.8.6,2.426,2.426,0,0,1-.965.2A2.4,2.4,0,0,1,93.785,57.907Zm.411-5.323a1.523,1.523,0,0,0-.481.532,2.72,2.72,0,0,0-.28.788,4.814,4.814,0,0,0-.092.959,5.577,5.577,0,0,0,.086,1.022,2.607,2.607,0,0,0,.274.793,1.4,1.4,0,0,0,.481.515,1.321,1.321,0,0,0,.711.184,1.242,1.242,0,0,0,.7-.2,1.532,1.532,0,0,0,.485-.532,2.655,2.655,0,0,0,.284-.785,4.809,4.809,0,0,0,.092-.962,5.718,5.718,0,0,0-.085-1.018,2.533,2.533,0,0,0-.274-.795,1.4,1.4,0,0,0-.486-.518,1.339,1.339,0,0,0-.717-.184A1.224,1.224,0,0,0,94.2,52.584Zm38.789,5.456-.943-2.021a2.18,2.18,0,0,0-.217-.384,1.037,1.037,0,0,0-.239-.242.846.846,0,0,0-.281-.128,1.365,1.365,0,0,0-.34-.039h-.407V58.04h-.86V51.722h1.692a3.257,3.257,0,0,1,.948.121,1.776,1.776,0,0,1,.65.338,1.3,1.3,0,0,1,.373.525,1.865,1.865,0,0,1,.119.679,1.781,1.781,0,0,1-.087.559,1.538,1.538,0,0,1-.258.478,1.644,1.644,0,0,1-.426.373,1.974,1.974,0,0,1-.582.235.99.99,0,0,1,.452.321,3.494,3.494,0,0,1,.38.611l1,2.079Zm-2.427-3.5h.7a1.991,1.991,0,0,0,.549-.07,1.175,1.175,0,0,0,.415-.208.94.94,0,0,0,.266-.338,1.074,1.074,0,0,0,.095-.462.911.911,0,0,0-.317-.759,1.4,1.4,0,0,0-.892-.252h-.813Zm-12.945,3.5V51.722H121.2v.724h-2.731v1.958H121.1v.724h-2.625V57.3H121.2v.735Zm-12.442,0V51.722h1.779a3.819,3.819,0,0,1,.9.1,2.174,2.174,0,0,1,.756.336,1.686,1.686,0,0,1,.52.6,1.907,1.907,0,0,1,.194.895,2.135,2.135,0,0,1-.145.766,1.892,1.892,0,0,1-.45.68,2.288,2.288,0,0,1-.779.486,3.09,3.09,0,0,1-1.131.186h-.783V58.04Zm.86-3h.8a1.832,1.832,0,0,0,1.177-.333,1.222,1.222,0,0,0,.413-1.011,1.134,1.134,0,0,0-.4-.933,1.728,1.728,0,0,0-1.114-.323h-.88Zm-24.967,3V51.722h.876V57.3H84.7v.735Zm-12.389,0V51.722h3.591v.724H69.536v1.958H72.16v.724H69.536V57.3h2.731v.735Zm-11.089,0-2.1-6.318h.971l1.363,4.259.387,1.247.4-1.247,1.368-4.259h.919L58.747,58.04Zm-13.38,0V51.722H47.8v.724H45.067v1.958h2.625v.724H45.067V57.3H47.8v.735Zm-12.679,0V51.722h1.629a2.919,2.919,0,0,1,2.207.761,3.26,3.26,0,0,1,.727,2.327,5.228,5.228,0,0,1-.07.87,3.366,3.366,0,0,1-.224.773,2.625,2.625,0,0,1-.4.65,2.28,2.28,0,0,1-.6.5,3.062,3.062,0,0,1-.831.321,4.6,4.6,0,0,1-1.078.114Zm.86-.744h.643q2.156,0,2.156-2.422a4.415,4.415,0,0,0-.126-1.137,1.806,1.806,0,0,0-.382-.749,1.471,1.471,0,0,0-.643-.413,2.9,2.9,0,0,0-.909-.129h-.74Zm85.966-13.982a12.075,12.075,0,0,1-2.988-8.167,12.259,12.259,0,0,1,3.03-8.186,9.812,9.812,0,0,1,7.829-3.557,13.919,13.919,0,0,1,1.431.085,12.112,12.112,0,0,1,1.642.293,9.307,9.307,0,0,1,2.988,1.158,2.556,2.556,0,0,1,1.348,2.273c0,.133-.009.259-.022.38s-.035.259-.062.4a3.763,3.763,0,0,1-.779,1.473,1.814,1.814,0,0,1-1.453.673,3.1,3.1,0,0,1-.506-.042,3.185,3.185,0,0,1-.5-.126q-.293-.084-.61-.19c-.21-.069-.414-.147-.609-.231q-.59-.211-1.221-.4a4.678,4.678,0,0,0-1.347-.19,4.277,4.277,0,0,0-3.83,1.916,7.594,7.594,0,0,0-1.263,4.271v.337a7.336,7.336,0,0,0,1.432,3.977,4.267,4.267,0,0,0,3.661,1.789,4.054,4.054,0,0,0,.8-.084,4.816,4.816,0,0,0,.841-.253,2.25,2.25,0,0,0,.464-.126c.14-.056.294-.112.464-.169q.63-.252,1.157-.442a2.6,2.6,0,0,1,.779-.189,2.482,2.482,0,0,1,1.851.778,2.591,2.591,0,0,1,.759,1.874A2.723,2.723,0,0,1,132.328,45a9.451,9.451,0,0,1-2.861,1.3,13.095,13.095,0,0,1-3.242.464A9.907,9.907,0,0,1,118.354,43.314Zm-23.278.147a11.592,11.592,0,0,1-3.136-8.313,12.255,12.255,0,0,1,3.03-8.186,10.4,10.4,0,0,1,14.921-.766,12.412,12.412,0,0,1,3.6,6.147q.084.5.148,1.029A8.553,8.553,0,0,1,113.7,34.4a2.848,2.848,0,0,1-.631,2.015,2.664,2.664,0,0,1-2.021.67H98.127a4.567,4.567,0,0,0,1.979,3.347,6.691,6.691,0,0,0,3.746,1.073,6.032,6.032,0,0,0,2.168-.378,14.962,14.962,0,0,0,1.831-.841q.842-.464,1.558-.842a2.834,2.834,0,0,1,1.305-.379,2.3,2.3,0,0,1,1.725.821,2.592,2.592,0,0,1,.758,1.789q0,1.683-2.483,3.114a15.051,15.051,0,0,1-5.473,1.852c-.336.028-.666.056-.988.085s-.639.042-.948.042A10.818,10.818,0,0,1,95.076,43.461Zm4.42-13.67A5.4,5.4,0,0,0,98,33.043h9.639a5.722,5.722,0,0,0-1.494-3.262,4.82,4.82,0,0,0-6.65.01ZM28.074,43.461a11.6,11.6,0,0,1-3.136-8.313,12.256,12.256,0,0,1,3.031-8.186A9.811,9.811,0,0,1,35.8,23.4,9.716,9.716,0,0,1,42.89,26.2a12.4,12.4,0,0,1,3.6,6.147q.085.5.148,1.029A8.553,8.553,0,0,1,46.7,34.4a2.844,2.844,0,0,1-.632,2.015,2.661,2.661,0,0,1-2.02.67H31.127A4.564,4.564,0,0,0,33.1,40.431,6.689,6.689,0,0,0,36.851,41.5a6.028,6.028,0,0,0,2.168-.378,14.962,14.962,0,0,0,1.831-.841q.841-.464,1.558-.842a2.834,2.834,0,0,1,1.3-.379,2.3,2.3,0,0,1,1.727.821,2.59,2.59,0,0,1,.757,1.789q0,1.683-2.484,3.114a15.042,15.042,0,0,1-5.471,1.852c-.338.028-.667.056-.99.085s-.638.042-.947.042A10.821,10.821,0,0,1,28.074,43.461Zm4.421-13.67A5.406,5.406,0,0,0,31,33.043h9.64a5.723,5.723,0,0,0-1.495-3.262A4.368,4.368,0,0,0,35.8,28.455,4.381,4.381,0,0,0,32.494,29.791ZM85,45.608a3.365,3.365,0,0,1-.863-2.42V32.581a3.933,3.933,0,0,0-1.157-3.093,4.062,4.062,0,0,0-2.8-1.032,3.537,3.537,0,0,0-2.862,1.2A4.449,4.449,0,0,0,76.3,32.623V43.146a3.473,3.473,0,0,1-.841,2.462,3.072,3.072,0,0,1-4.356,0,3.368,3.368,0,0,1-.863-2.425V26.946a3.382,3.382,0,0,1,.863-2.4,2.834,2.834,0,0,1,2.168-.929,2.888,2.888,0,0,1,1.894.59,2.573,2.573,0,0,1,.885,1.642,5.591,5.591,0,0,1,2.292-1.852,8.733,8.733,0,0,1,3.559-.632,8.468,8.468,0,0,1,5.934,2.151,7.751,7.751,0,0,1,2.357,6.03v11.6a3.48,3.48,0,0,1-.841,2.467,3.072,3.072,0,0,1-4.356,0Zm-21.8,0a3.368,3.368,0,0,1-.862-2.42V32.581a3.93,3.93,0,0,0-1.157-3.093,4.059,4.059,0,0,0-2.8-1.032,3.537,3.537,0,0,0-2.863,1.2,4.453,4.453,0,0,0-1.01,2.968V43.146a3.477,3.477,0,0,1-.841,2.462,3.074,3.074,0,0,1-4.358,0,3.375,3.375,0,0,1-.861-2.425V26.946a3.389,3.389,0,0,1,.861-2.4,2.84,2.84,0,0,1,2.168-.929,2.9,2.9,0,0,1,1.9.59,2.568,2.568,0,0,1,.884,1.642,5.594,5.594,0,0,1,2.293-1.852,8.721,8.721,0,0,1,3.557-.632,8.468,8.468,0,0,1,5.935,2.151,7.748,7.748,0,0,1,2.357,6.03v11.6a3.48,3.48,0,0,1-.841,2.467,3.073,3.073,0,0,1-4.357,0Zm70.436-18.4v0Z" transform="translate(-3.695 -1.943)"/></svg>